<svg width="197" height="32" viewBox="0 0 197 32" fill="none" xmlns="http://www.w3.org/2000/svg">
<g clip-path="url(#clip0_1006_7205)">
<path fill-rule="evenodd" clip-rule="evenodd" d="M56.9764 18.0835H58.7624C58.0182 21.3579 55.2647 23.5161 51.5438 23.5161C47.1531 23.5161 43.6554 20.2417 43.6554 15.9998C43.6554 11.6835 47.1531 8.48351 51.5438 8.48351C55.2647 8.48351 58.0182 10.6417 58.7624 13.9161H56.9764C56.381 11.5347 54.3717 10.0463 51.6182 10.0463C48.195 10.0463 45.5159 12.5765 45.5159 15.9998C45.5159 19.423 48.195 21.9533 51.6182 21.9533C54.2973 21.9533 56.3066 20.3905 56.9764 18.0835ZM77.5903 15.9998C77.5903 20.1672 74.2415 23.5161 70.0741 23.5161C65.9066 23.5161 62.5578 20.1672 62.5578 15.9998C62.5578 11.8323 65.9066 8.48351 70.0741 8.48351C74.2415 8.48351 77.5903 11.8323 77.5903 15.9998ZM75.8787 15.9998C75.8787 12.7254 73.3485 10.0463 70.0741 10.0463C66.7996 10.0463 64.2694 12.7254 64.2694 15.9998C64.2694 19.2742 66.7996 21.9533 70.0741 21.9533C73.3485 21.9533 75.8787 19.2742 75.8787 15.9998ZM95.4508 8.48351V23.5161H94.0368L84.8834 11.6091V23.5161H83.2461V8.48351H84.5857L93.8136 20.5393V8.48351H95.4508ZM103.786 10.1207V15.6277H111.451V17.2649H103.786V23.5905H102V8.48351H112.344V10.1207H103.786ZM128.418 21.8789V23.5161H118.074V8.48351H119.86V21.9533H128.418V21.8789ZM144.418 16.9672C144.418 20.9114 141.814 23.5905 137.795 23.5905C133.851 23.5905 131.172 20.9114 131.172 16.9672V8.48351H132.958V16.9672C132.958 19.8696 134.893 21.9533 137.795 21.9533C140.697 21.9533 142.558 19.8696 142.558 16.9672V8.48351H144.344V16.9672H144.418ZM152.753 10.1207V15.2556H160.493V16.8928H152.753V21.9533H161.386V23.5905H151.041V8.48351H161.386V10.1207H152.753ZM178.279 8.48351V23.5161H176.865L167.711 11.6091V23.5161H166.074V8.48351H167.414L176.641 20.5393V8.48351H178.279ZM196.214 10.1207H190.93V23.5905H189.293V10.1207H184.009V8.48351H196.214V10.1207ZM23.3392 16.8928C24.1578 16.8184 24.9764 16.8184 25.795 16.744V16.1486C24.9764 16.0742 24.1578 16.0742 23.3392 15.9998L20.8834 15.9254C19.4694 15.851 17.981 15.851 16.5671 15.851C16.5671 14.437 16.5671 12.9486 16.4927 11.5347L16.4182 9.07886C16.3438 8.26026 16.3438 7.44165 16.2694 6.62305H15.5996C15.5252 7.44165 15.5252 8.26026 15.4508 9.07886L15.3764 11.5347C15.3764 12.2044 15.3764 12.8742 15.3764 13.544C15.0787 12.9486 14.8554 12.2789 14.5578 11.6835L13.5159 9.45095C13.1438 8.70677 12.8461 7.96258 12.4741 7.2184L11.8787 7.44165C12.1764 8.26026 12.3996 9.00444 12.6973 9.74863L13.5903 12.0556C13.8136 12.7254 14.1113 13.3207 14.3345 13.9905C13.8136 13.544 13.3671 13.023 12.8461 12.5765L11.0601 10.8649C10.4648 10.344 9.8694 9.74863 9.19963 9.2277L8.6787 9.74863C9.19963 10.344 9.79498 10.9393 10.3159 11.6091L12.0275 13.3951C12.4741 13.9161 12.995 14.3626 13.4415 14.8835C12.8461 14.6603 12.1764 14.3626 11.5066 14.1393L9.19963 13.2463C8.45545 12.9486 7.63684 12.651 6.89266 12.4277L6.59498 13.0975C7.33917 13.4696 8.08335 13.7672 8.82754 14.1393L11.0601 15.1812C11.6554 15.4789 12.3252 15.7021 12.9206 15.9998C12.2508 15.9998 11.581 15.9998 10.9113 15.9998L8.45545 16.0742C7.63684 16.1486 6.81824 16.1486 5.99963 16.223V16.8928C6.81824 16.9672 7.63684 16.9672 8.45545 17.0417L10.9113 17.1161C12.3996 17.1905 13.8136 17.1905 15.2275 17.1905C15.2275 18.6044 15.2275 20.0928 15.302 21.5068L15.3764 23.9626C15.4508 24.7812 15.4508 25.5998 15.5252 26.4184H16.1206C16.195 25.5998 16.195 24.7812 16.2694 23.9626L16.3438 21.5068C16.3438 20.837 16.3438 20.0928 16.4182 19.423C16.7159 20.0928 16.9392 20.6882 17.2368 21.3579L18.2787 23.5905C18.6508 24.3347 18.9485 25.0789 19.3206 25.823L19.9159 25.5998C19.6927 24.7812 19.395 24.037 19.0973 23.2928L18.3531 20.837C18.1299 20.1672 17.8322 19.5719 17.6089 18.9021C18.1299 19.423 18.5764 19.8696 19.0973 20.3161L20.8834 22.0277C21.4787 22.5486 22.0741 23.144 22.7438 23.6649L23.1903 23.2184C22.6694 22.623 22.0741 22.0277 21.5531 21.3579L19.8415 19.5719C19.395 19.051 18.8741 18.53 18.4275 18.0835C19.0973 18.3068 19.6927 18.6044 20.3624 18.8277L22.6694 19.7207C23.4136 20.0184 24.2322 20.3161 24.9764 20.5393L25.1996 19.944C24.4554 19.5719 23.7113 19.1998 22.9671 18.9021L20.7345 17.8603C20.0647 17.5626 19.4694 17.2649 18.7996 17.0417C19.4694 17.0417 20.2136 17.0417 20.8834 16.9672L23.3392 16.8928Z" fill="#173361"/>
<path fill-rule="evenodd" clip-rule="evenodd" d="M16.4182 32C7.5624 32 0.418213 24.8558 0.418213 16C0.418213 7.14419 7.5624 0 16.4182 0C25.274 0 32.4182 7.14419 32.4182 16C32.4182 24.8558 25.274 32 16.4182 32ZM16.4182 1.48837C8.45542 1.48837 1.90658 8.03721 1.90658 16C1.90658 23.9628 8.45542 30.5116 16.4182 30.5116C24.381 30.5116 30.9298 23.9628 30.9298 16C30.9298 8.03721 24.381 1.48837 16.4182 1.48837Z" fill="#173361"/>
</g>
<defs>
<clipPath id="clip0_1006_7205">
<rect width="195.795" height="32" fill="white" transform="translate(0.418213)"/>
</clipPath>
</defs>
</svg>
