<svg width="12" height="12" viewBox="0 0 12 12" fill="none" xmlns="http://www.w3.org/2000/svg">
<path d="M0.218336 3.57411e-06H11.781C11.8098 -0.000161124 11.8383 0.00536778 11.8649 0.0162716C11.8915 0.0271753 11.9157 0.0432384 11.936 0.0635348C11.9564 0.0838309 11.9726 0.107959 11.9836 0.134528C11.9946 0.161097 12.0002 0.189582 12.0002 0.218339V6.88403C12.0002 6.91268 11.9946 6.94108 11.9837 6.96755C11.9728 6.99405 11.9567 7.01812 11.9365 7.03839C11.9162 7.05867 11.8922 7.07477 11.8657 7.08574C11.8393 7.09671 11.8109 7.10236 11.7822 7.10236H10.0355C10.0069 7.10236 9.97852 7.09671 9.95208 7.08574C9.9256 7.07477 9.90156 7.05867 9.88131 7.03839C9.86108 7.01812 9.84503 6.99405 9.83411 6.96755C9.82319 6.94108 9.81759 6.91268 9.81764 6.88403V2.1817H2.1817V9.81514H6.87238C6.901 9.81514 6.92935 9.82079 6.95577 9.83174C6.98222 9.84269 7.00624 9.85874 7.02649 9.87896C7.04671 9.89921 7.06276 9.92323 7.07371 9.94968C7.08466 9.9761 7.09031 10.0044 7.09031 10.0331V11.7797C7.09031 11.8084 7.08466 11.8367 7.07371 11.8632C7.06276 11.8896 7.04671 11.9136 7.02649 11.9338C7.00624 11.9541 6.98222 11.9701 6.95577 11.9811C6.92935 11.992 6.901 11.9977 6.87238 11.9977H0.218336C0.189683 11.9977 0.161301 11.9921 0.134814 11.9812C0.108326 11.9703 0.0842541 11.9542 0.0639742 11.934C0.0436945 11.9138 0.0276055 11.8897 0.0166279 11.8632C0.00565036 11.8368 0 11.8084 0 11.7797V0.218339C0 0.160433 0.0230032 0.104899 0.0639492 0.0639527C0.104895 0.0230068 0.16043 3.57411e-06 0.218336 3.57411e-06Z" fill="white"/>
<path d="M4.90849 4.90835H7.09019V7.09005H4.90849V4.90835Z" fill="white"/>
<path d="M7.69035 7.36286H9.21746C9.39822 7.36286 9.54476 7.5094 9.54476 7.69016V9.21727C9.54476 9.39803 9.39822 9.54457 9.21746 9.54457H7.69035C7.50959 9.54457 7.36306 9.39803 7.36306 9.21727V7.69016C7.36306 7.5094 7.50959 7.36286 7.69035 7.36286Z" fill="white"/>
<path d="M10.7445 11.9987C11.4372 11.9987 11.9988 11.4371 11.9988 10.7444C11.9988 10.0517 11.4372 9.49008 10.7445 9.49008C10.0518 9.49008 9.49022 10.0517 9.49022 10.7444C9.49022 11.4371 10.0518 11.9987 10.7445 11.9987Z" fill="white"/>
</svg>
