<svg width="68" height="26" viewBox="0 0 68 26" fill="none" xmlns="http://www.w3.org/2000/svg">
<g clip-path="url(#clip0_950_7929)">
<path d="M14.3461 10.79H9.93188V15.2042H14.3461V10.79Z" fill="#0064FF"/>
<path d="M18.65 15.7559H15.5601C15.1944 15.7559 14.8979 16.0523 14.8979 16.418V19.5079C14.8979 19.8736 15.1944 20.17 15.5601 20.17H18.65C19.0157 20.17 19.3121 19.8736 19.3121 19.5079V16.418C19.3121 16.0523 19.0157 15.7559 18.65 15.7559Z" fill="#BC2EFF"/>
<path d="M0 1.29982V24.695C0 24.9378 0.198638 25.1364 0.441418 25.1364H13.9047C14.1475 25.1364 14.3461 24.9378 14.3461 24.695V21.1636C14.3461 20.9209 14.1475 20.7222 13.9047 20.7222H4.41418V5.27258H19.8638V14.7874C19.8638 15.0301 20.0625 15.2288 20.3052 15.2288H23.8366C24.0794 15.2288 24.278 15.0301 24.278 14.7874V1.29982C24.278 1.05704 24.0794 0.858398 23.8366 0.858398H0.441418C0.198638 0.858398 0 1.05704 0 1.29982Z" fill="#14174D"/>
<path d="M21.7398 25.1369C23.1416 25.1369 24.278 24.0005 24.278 22.5987C24.278 21.1969 23.1416 20.0605 21.7398 20.0605C20.338 20.0605 19.2017 21.1969 19.2017 22.5987C19.2017 24.0005 20.338 25.1369 21.7398 25.1369Z" fill="#FF7828"/>
<path d="M49.2204 10.7949H45.6824C45.4386 10.7949 45.241 10.9926 45.241 11.2363V24.6996C45.241 24.9434 45.4386 25.141 45.6824 25.141H49.2204C49.4641 25.141 49.6618 24.9434 49.6618 24.6996V11.2363C49.6618 10.9926 49.4641 10.7949 49.2204 10.7949Z" fill="#14174D"/>
<path d="M49.2204 3.06152H45.6824C45.4386 3.06152 45.241 3.25915 45.241 3.50294V7.04091C45.241 7.2847 45.4386 7.48233 45.6824 7.48233H49.2204C49.4641 7.48233 49.6618 7.2847 49.6618 7.04091V3.50294C49.6618 3.25915 49.4641 3.06152 49.2204 3.06152Z" fill="#14174D"/>
<path d="M37.5228 11.2359V20.7197H32.0006V11.2315C32.0006 10.9887 31.802 10.79 31.5592 10.79H28.0213C27.7785 10.79 27.5798 10.9887 27.5798 11.2315L27.5975 24.6991C27.5975 24.9419 27.7961 25.1405 28.0389 25.1405H41.5022C41.7449 25.1405 41.9436 24.9419 41.9436 24.6991V11.2359C41.9436 10.9931 41.7449 10.7945 41.5022 10.7945H37.9642C37.7214 10.7945 37.5228 10.9931 37.5228 11.2359Z" fill="#14174D"/>
<path d="M66.8749 10.79H63.3435C63.1008 10.79 62.9021 10.9887 62.9021 11.2315V14.1007L60.1433 15.9392L57.3844 14.1007V11.2315C57.3844 10.9887 57.1858 10.79 56.943 10.79H53.4116C53.1689 10.79 52.9702 10.9887 52.9702 11.2315V15.2042L57.1085 17.9631L52.9702 20.722V24.6947C52.9702 24.9375 53.1689 25.1361 53.4116 25.1361H56.943C57.1858 25.1361 57.3844 24.9375 57.3844 24.6947V21.7968L60.1278 19.976L62.9021 21.8255V24.6947C62.9021 24.9375 63.1008 25.1361 63.3435 25.1361H66.8749C67.1177 25.1361 67.3163 24.9375 67.3163 24.6947V20.722L63.1692 17.9565L67.3163 15.2042V11.2315C67.3163 10.9887 67.1177 10.79 66.8749 10.79Z" fill="#14174D"/>
</g>
<defs>
<clipPath id="clip0_950_7929">
<rect width="67.3163" height="24.2824" fill="white" transform="translate(0 0.858398)"/>
</clipPath>
</defs>
</svg>
