<svg width="50" height="55" viewBox="0 0 50 55" fill="none" xmlns="http://www.w3.org/2000/svg">
<circle cx="25" cy="25" r="12" fill="white"/>
<circle cx="25" cy="25" r="16" fill="#67E902" stroke="white" stroke-width="2"/>
<g filter="url(#filter0_d_574_9272)">
<path d="M29.0315 44.5935C38.1448 42.7282 45 34.6647 45 25C45 13.9543 36.0457 5 25 5C13.9543 5 5 13.9543 5 25C5 34.652 11.8373 42.7071 20.9326 44.5861C21.8499 45.7944 23.8968 48.5407 24.4004 49.64C24.6053 50.0873 25.3959 50.0877 25.601 49.6405C26.1946 48.3464 27.52 46.4698 29.0315 44.5935Z" fill="#67E902"/>
<path d="M28.7308 43.124L28.202 43.2322L27.8634 43.6525C26.7745 45.0042 25.7303 46.4165 24.9769 47.6524C24.6862 47.2041 24.3604 46.7321 24.0465 46.288C23.3429 45.2929 22.5903 44.2889 22.1273 43.6791L21.7871 43.231L21.2361 43.1171C12.8235 41.3792 6.5 33.9263 6.5 25C6.5 14.7827 14.7827 6.5 25 6.5C35.2173 6.5 43.5 14.7827 43.5 25C43.5 33.9381 37.1599 41.3987 28.7308 43.124Z" stroke="#67E902" stroke-width="3"/>
</g>
<defs>
<filter id="filter0_d_574_9272" x="0" y="0" width="50" height="54.9756" filterUnits="userSpaceOnUse" color-interpolation-filters="sRGB">
<feFlood flood-opacity="0" result="BackgroundImageFix"/>
<feColorMatrix in="SourceAlpha" type="matrix" values="0 0 0 0 0 0 0 0 0 0 0 0 0 0 0 0 0 0 127 0" result="hardAlpha"/>
<feMorphology radius="1" operator="dilate" in="SourceAlpha" result="effect1_dropShadow_574_9272"/>
<feOffset/>
<feGaussianBlur stdDeviation="2"/>
<feComposite in2="hardAlpha" operator="out"/>
<feColorMatrix type="matrix" values="0 0 0 0 0 0 0 0 0 0 0 0 0 0 0 0 0 0 0.35 0"/>
<feBlend mode="normal" in2="BackgroundImageFix" result="effect1_dropShadow_574_9272"/>
<feBlend mode="normal" in="SourceGraphic" in2="effect1_dropShadow_574_9272" result="shape"/>
</filter>
</defs>
</svg>
