<svg width="67" height="24" viewBox="0 0 67 24" fill="none" xmlns="http://www.w3.org/2000/svg">
<g clip-path="url(#clip0_820_4180)">
<path d="M14.1792 9.81641H9.81641V14.1792H14.1792V9.81641Z" fill="#0064FF"/>
<path d="M18.433 14.7246H15.379C15.0176 14.7246 14.7246 15.0176 14.7246 15.379V18.433C14.7246 18.7945 15.0176 19.0875 15.379 19.0875H18.433C18.7945 19.0875 19.0875 18.7945 19.0875 18.433V15.379C19.0875 15.0176 18.7945 14.7246 18.433 14.7246Z" fill="#BC2EFF"/>
<path d="M0 0.436284V23.5594C0 23.7993 0.196328 23.9956 0.436284 23.9956H13.743C13.9829 23.9956 14.1792 23.7993 14.1792 23.5594V20.0691C14.1792 19.8291 13.9829 19.6328 13.743 19.6328H4.36284V4.36284H19.6328V13.767C19.6328 14.0069 19.8291 14.2032 20.0691 14.2032H23.5594C23.7993 14.2032 23.9956 14.0069 23.9956 13.767V0.436284C23.9956 0.196328 23.7993 0 23.5594 0H0.436284C0.196328 0 0 0.196328 0 0.436284Z" fill="white"/>
<path d="M21.487 23.9958C22.8725 23.9958 23.9957 22.8726 23.9957 21.4872C23.9957 20.1017 22.8725 18.9785 21.487 18.9785C20.1015 18.9785 18.9784 20.1017 18.9784 21.4872C18.9784 22.8726 20.1015 23.9958 21.487 23.9958Z" fill="#FF7828"/>
<path d="M48.6479 9.82031H45.1511C44.9101 9.82031 44.7148 10.0156 44.7148 10.2566V23.5633C44.7148 23.8042 44.9101 23.9996 45.1511 23.9996H48.6479C48.8888 23.9996 49.0842 23.8042 49.0842 23.5633V10.2566C49.0842 10.0156 48.8888 9.82031 48.6479 9.82031Z" fill="white"/>
<path d="M48.6479 2.17676H45.1511C44.9101 2.17676 44.7148 2.37209 44.7148 2.61304V6.10986C44.7148 6.35081 44.9101 6.54615 45.1511 6.54615H48.6479C48.8888 6.54615 49.0842 6.35081 49.0842 6.10986V2.61304C49.0842 2.37209 48.8888 2.17676 48.6479 2.17676Z" fill="white"/>
<path d="M37.0863 10.2571V19.6306H31.6284V10.2527C31.6284 10.0127 31.4321 9.81641 31.1921 9.81641H27.6953C27.4554 9.81641 27.259 10.0127 27.259 10.2527L27.2765 23.5637C27.2765 23.8037 27.4728 24 27.7128 24H41.0194C41.2594 24 41.4557 23.8037 41.4557 23.5637V10.2571C41.4557 10.0171 41.2594 9.82077 41.0194 9.82077H37.5226C37.2827 9.82077 37.0863 10.0171 37.0863 10.2571Z" fill="white"/>
<path d="M66.0971 9.81641H62.6068C62.3669 9.81641 62.1705 10.0127 62.1705 10.2527V13.0885L59.4437 14.9057L56.717 13.0885V10.2527C56.717 10.0127 56.5206 9.81641 56.2807 9.81641H52.7904C52.5505 9.81641 52.3541 10.0127 52.3541 10.2527V14.1792L56.4443 16.906L52.3541 19.6328V23.5594C52.3541 23.7993 52.5505 23.9956 52.7904 23.9956H56.2807C56.5206 23.9956 56.717 23.7993 56.717 23.5594V20.6952L59.4285 18.8955L62.1705 20.7235V23.5594C62.1705 23.7993 62.3669 23.9956 62.6068 23.9956H66.0971C66.337 23.9956 66.5334 23.7993 66.5334 23.5594V19.6328L62.4345 16.8995L66.5334 14.1792V10.2527C66.5334 10.0127 66.337 9.81641 66.0971 9.81641Z" fill="white"/>
</g>
<defs>
<clipPath id="clip0_820_4180">
<rect width="66.5334" height="24" fill="white"/>
</clipPath>
</defs>
</svg>
